<svg version="1.1" xmlns="http://www.w3.org/2000/svg" xmlns:xlink="http://www.w3.org/1999/xlink" width="68" height="68" viewBox="0,0,68,68"><g transform="translate(-206,-146)"><g data-paper-data="{&quot;isPaintingLayer&quot;:true}" fill-rule="nonzero" stroke-linecap="butt" stroke-linejoin="miter" stroke-miterlimit="10" stroke-dasharray="" stroke-dashoffset="0" style="mix-blend-mode: normal"><path d="M206,214v-68h68v68z" fill="#00dbff" stroke="#000000" stroke-width="0"></path><path d="M265.93469,161.01673c0.39528,1.18585 -0.79057,1.58114 -0.79057,1.58114l-0.85027,0.25417c-6.28048,0.69129 -14.99215,1.06409 -20.91921,-1.19846c-4.18472,0.06174 -6.79581,-1.9752 -10.5409,-2.9785c-1.18052,-0.31626 -2.44415,0.03344 -3.6663,0.03344c-4.78185,0 -11.11319,0.8265 -15.08741,3.72066c0,0 -1.01717,0.72655 -1.74371,-0.29062c-0.72655,-1.01717 0.29062,-1.74371 0.29062,-1.74371c4.49525,-3.16114 11.16825,-4.18632 16.5405,-4.18632c0.10962,0 4.06673,-0.01173 4.24068,0.03344c3.76242,0.97691 6.2638,2.90278 10.41258,2.95174c5.78637,2.13383 14.08686,1.85942 20.19707,1.17363l0.33578,-0.14117c0,0 1.18585,-0.39528 1.58114,0.79057z" fill="#00afca" stroke="none" stroke-width="0.5"></path><path d="M266.85525,179.03904c0.55902,1.11803 -0.55902,1.67705 -0.55902,1.67705l-0.68488,0.30025c-6.81117,1.47705 -15.83198,1.21314 -22.09434,-1.94676c-2.26046,-1.86548 -5.70359,-0.79184 -8.43096,-0.79129c-4.24321,0.00086 -10.54075,-1.16372 -14.60596,0.32769c-2.81987,1.03454 -5.46303,2.93947 -8.14898,4.28453c0,0 -1.11803,0.55902 -1.67705,-0.55902c-0.55902,-1.11803 0.55902,-1.67705 0.55902,-1.67705c2.77985,-1.38765 5.51878,-3.38523 8.45567,-4.41314c4.44418,-1.55546 10.79814,-0.46396 15.4173,-0.46301c3.36696,0.00069 6.93133,-1.03348 9.77834,1.18545c5.64379,2.79197 14.12753,2.98152 20.20799,1.61138l0.10582,-0.0951c0,0 1.11803,-0.55902 1.67705,0.55902z" fill="#00afca" stroke="none" stroke-width="0.5"></path><path d="M263.16725,196.40045c0.39528,1.18585 -0.79057,1.58114 -0.79057,1.58114l-0.49591,0.16075c-3.61553,1.54944 -6.35191,1.68246 -10.24821,1.68246c-3.2201,0 -5.48811,0.52114 -7.4852,-2.32333c-1.06523,-1.52454 -2.17026,-3.5789 -4.16964,-4.02948c-2.11955,-0.47767 -5.28922,0.58585 -7.33877,0.95201c-4.5666,0.81584 -9.12675,1.84765 -13.60926,3.04212c-2.27457,0.60611 -4.93181,1.06287 -6.57138,2.78326c0,0 -0.88388,0.88388 -1.76777,0c-0.88388,-0.88388 0,-1.76777 0,-1.76777c2.63475,-2.54656 6.66765,-3.19879 10.17948,-3.99438c3.78532,-0.85755 7.50284,-1.84128 11.32945,-2.5243c2.3477,-0.41905 5.87471,-1.52121 8.29723,-0.93648c2.7627,0.66684 4.19219,2.90301 5.71409,5.06354c1.21826,1.98394 3.26211,1.23481 5.42177,1.23481c3.59495,0 5.95505,-0.06238 9.26341,-1.48033l0.69014,-0.2346c0,0 1.18585,-0.39528 1.58114,0.79057z" fill="#00afca" stroke="none" stroke-width="0.5"></path></g></g></svg>